<svg width="18" height="19" viewBox="0 0 18 19" fill="none" xmlns="http://www.w3.org/2000/svg">
<g id="octicon:people-24">
<path id="Vector" d="M2.62495 6.49999C2.62509 5.78893 2.80905 5.08998 3.15896 4.47097C3.50887 3.85196 4.01285 3.33391 4.622 2.96709C5.23115 2.60028 5.92477 2.39716 6.63556 2.37744C7.34635 2.35772 8.05017 2.52208 8.67872 2.85456C9.30726 3.18704 9.83919 3.67635 10.2229 4.27501C10.6066 4.87367 10.829 5.56135 10.8686 6.27132C10.9081 6.98128 10.7635 7.68941 10.4487 8.327C10.1339 8.96459 9.65965 9.50998 9.07195 9.91024C10.3376 10.3744 11.4353 11.2068 12.2239 12.3001C13.0125 13.3935 13.4559 14.6978 13.4969 16.0452C13.4952 16.1905 13.4374 16.3295 13.3356 16.4332C13.2338 16.5368 13.0958 16.5971 12.9506 16.6015C12.8054 16.6058 12.6641 16.5539 12.5563 16.4565C12.4484 16.3592 12.3824 16.2239 12.3719 16.079C12.3273 14.6176 11.7154 13.231 10.6658 12.2131C9.6163 11.1951 8.21166 10.6258 6.74957 10.6258C5.28748 10.6258 3.88284 11.1951 2.83332 12.2131C1.78379 13.231 1.17186 14.6176 1.1272 16.079C1.11969 16.2259 1.05495 16.364 0.946865 16.4637C0.838777 16.5634 0.695929 16.6168 0.548926 16.6125C0.401922 16.6082 0.262455 16.5465 0.160402 16.4406C0.0583487 16.3347 0.00182726 16.1931 0.00294598 16.046C0.0438595 14.6984 0.487151 13.3939 1.27576 12.3004C2.06437 11.2069 3.1622 10.3745 4.42795 9.91024C3.87225 9.53179 3.41749 9.02323 3.10325 8.42886C2.789 7.83449 2.62481 7.17232 2.62495 6.49999ZM6.74995 3.49999C5.9543 3.49999 5.19123 3.81607 4.62863 4.37867C4.06602 4.94128 3.74995 5.70435 3.74995 6.49999C3.74995 7.29564 4.06602 8.05871 4.62863 8.62132C5.19123 9.18392 5.9543 9.49999 6.74995 9.49999C7.5456 9.49999 8.30866 9.18392 8.87127 8.62132C9.43388 8.05871 9.74995 7.29564 9.74995 6.49999C9.74995 5.70435 9.43388 4.94128 8.87127 4.37867C8.30866 3.81607 7.5456 3.49999 6.74995 3.49999ZM12.9674 6.49999C12.8569 6.49999 12.7484 6.50749 12.6419 6.52249C12.5676 6.53581 12.4913 6.53401 12.4177 6.51721C12.344 6.5004 12.2745 6.46894 12.2133 6.42468C12.1521 6.38043 12.1004 6.32431 12.0613 6.25965C12.0223 6.19499 11.9966 6.12313 11.986 6.04835C11.9753 5.97357 11.9798 5.89741 11.9992 5.8244C12.0185 5.75139 12.0524 5.68304 12.0988 5.62341C12.1452 5.56379 12.2031 5.51412 12.2691 5.47737C12.3351 5.44062 12.4078 5.41753 12.4829 5.40949C13.2289 5.30165 13.9895 5.44489 14.6451 5.81669C15.3007 6.18848 15.8141 6.76772 16.1044 7.46324C16.3947 8.15876 16.4456 8.93108 16.2489 9.65865C16.0522 10.3862 15.6192 11.0277 15.0179 11.4822C15.9017 11.878 16.6521 12.521 17.1786 13.3337C17.7051 14.1464 17.9851 15.0942 17.9849 16.0625C17.9849 16.2117 17.9257 16.3548 17.8202 16.4602C17.7147 16.5657 17.5716 16.625 17.4224 16.625C17.2733 16.625 17.1302 16.5657 17.0247 16.4602C16.9192 16.3548 16.8599 16.2117 16.8599 16.0625C16.8602 15.2255 16.5907 14.4107 16.0914 13.739C15.592 13.0673 14.8895 12.5744 14.0879 12.3335L13.6874 12.2135V10.9565L13.9949 10.7997C14.4508 10.5689 14.8155 10.1911 15.0302 9.72743C15.2449 9.26377 15.2971 8.74128 15.1783 8.24431C15.0596 7.74735 14.7768 7.3049 14.3756 6.98841C13.9745 6.67193 13.4784 6.49986 12.9674 6.49999Z" fill="#1E1E1E" fill-opacity="0.5"/>
</g>
</svg>
