<svg width="18" height="19" viewBox="0 0 18 19" fill="none" xmlns="http://www.w3.org/2000/svg">
<g id="octicon:calendar-24" clip-path="url(#clip0_1_367)">
<path id="Vector" d="M5.0625 0.5C5.21168 0.5 5.35476 0.559263 5.46025 0.664752C5.56574 0.770242 5.625 0.913316 5.625 1.0625V2.75H12.375V1.0625C12.375 0.913316 12.4343 0.770242 12.5398 0.664752C12.6452 0.559263 12.7883 0.5 12.9375 0.5C13.0867 0.5 13.2298 0.559263 13.3352 0.664752C13.4407 0.770242 13.5 0.913316 13.5 1.0625V2.75H15.5625C16.287 2.75 16.875 3.338 16.875 4.0625V16.0625C16.875 16.4106 16.7367 16.7444 16.4906 16.9906C16.2444 17.2367 15.9106 17.375 15.5625 17.375H2.4375C2.0894 17.375 1.75556 17.2367 1.50942 16.9906C1.26328 16.7444 1.125 16.4106 1.125 16.0625V4.0625C1.125 3.338 1.713 2.75 2.4375 2.75H4.5V1.0625C4.5 0.913316 4.55926 0.770242 4.66475 0.664752C4.77024 0.559263 4.91332 0.5 5.0625 0.5ZM15.75 7.625H2.25V16.0625C2.25 16.166 2.334 16.25 2.4375 16.25H15.5625C15.6122 16.25 15.6599 16.2302 15.6951 16.1951C15.7302 16.1599 15.75 16.1122 15.75 16.0625V7.625ZM2.4375 3.875C2.38777 3.875 2.34008 3.89475 2.30492 3.92992C2.26975 3.96508 2.25 4.01277 2.25 4.0625V6.5H15.75V4.0625C15.75 4.01277 15.7302 3.96508 15.6951 3.92992C15.6599 3.89475 15.6122 3.875 15.5625 3.875H2.4375Z" fill="#1E1E1E" fill-opacity="0.5"/>
</g>
<defs>
<clipPath id="clip0_1_367">
<rect width="18" height="18" fill="white" transform="translate(0 0.5)"/>
</clipPath>
</defs>
</svg>
